<svg width="160" height="84" viewBox="0 0 160 84" fill="none" xmlns="http://www.w3.org/2000/svg">
<g opacity="0.5" filter="url(#filter0_d_19_3)">
<path d="M77.9 76C76.7667 76 75.8333 75.6667 75.1 75C74.3667 74.2667 74 73.3333 74 72.2V43.4C74 38.6667 72.7667 34.9333 70.3 32.2C67.8333 29.4 64.6667 28 60.8 28C56.6667 28 53.2667 29.4 50.6 32.2C48 34.9333 46.7333 38.6 46.8 43.2H39.9C39.9667 38.7333 40.9333 34.8 42.8 31.4C44.6667 28 47.2333 25.3667 50.5 23.5C53.7667 21.6333 57.4667 20.7 61.6 20.7C65.5333 20.7 69 21.6333 72 23.5C75.0667 25.3667 77.4333 28 79.1 31.4C80.8333 34.8 81.7 38.8 81.7 43.4V72.2C81.7 73.3333 81.3333 74.2667 80.6 75C79.9333 75.6667 79.0333 76 77.9 76ZM7.9 76C6.7 76 5.73333 75.6667 5 75C4.33333 74.2667 4 73.3333 4 72.2V25.2C4 24.0667 4.33333 23.1333 5 22.4C5.73333 21.6667 6.7 21.3 7.9 21.3C9.03333 21.3 9.93333 21.6667 10.6 22.4C11.3333 23.1333 11.7 24.0667 11.7 25.2V72.2C11.7 73.3333 11.3333 74.2667 10.6 75C9.93333 75.6667 9.03333 76 7.9 76ZM43 76C41.8667 76 40.9333 75.6667 40.2 75C39.4667 74.2667 39.1 73.3333 39.1 72.2V43.4C39.1 38.6667 37.8667 34.9333 35.4 32.2C32.9333 29.4 29.7667 28 25.9 28C21.7667 28 18.3667 29.3667 15.7 32.1C13.0333 34.7667 11.7 38.2667 11.7 42.6H6.2C6.33333 38.3333 7.26667 34.5667 9 31.3C10.8 27.9667 13.2333 25.3667 16.3 23.5C19.3667 21.6333 22.8333 20.7 26.7 20.7C30.6333 20.7 34.1 21.6333 37.1 23.5C40.1667 25.3667 42.5333 28 44.2 31.4C45.9333 34.8 46.8 38.8 46.8 43.4V72.2C46.8 73.3333 46.4333 74.2667 45.7 75C45.0333 75.6667 44.1333 76 43 76ZM104.227 76C103.027 76 102.06 75.6667 101.327 75C100.66 74.2667 100.327 73.3 100.327 72.1V25.2C100.327 24 100.66 23.0667 101.327 22.4C102.06 21.6667 103.027 21.3 104.227 21.3C105.36 21.3 106.26 21.6667 106.927 22.4C107.66 23.0667 108.027 24 108.027 25.2V72.1C108.027 73.3 107.66 74.2667 106.927 75C106.26 75.6667 105.36 76 104.227 76ZM104.127 10.9C102.66 10.9 101.393 10.3667 100.327 9.29999C99.2599 8.23333 98.7266 6.93333 98.7266 5.4C98.7266 3.73333 99.2599 2.43333 100.327 1.49999C101.46 0.499995 102.76 -5.00679e-06 104.227 -5.00679e-06C105.627 -5.00679e-06 106.86 0.499995 107.927 1.49999C109.06 2.43333 109.627 3.73333 109.627 5.4C109.627 6.93333 109.093 8.23333 108.027 9.29999C106.96 10.3667 105.66 10.9 104.127 10.9ZM149.033 76C145.499 76 142.333 75.1667 139.533 73.5C136.799 71.8333 134.633 69.5667 133.033 66.7C131.433 63.7667 130.633 60.4333 130.633 56.7V7.8C130.633 6.66666 130.966 5.73333 131.633 5C132.366 4.26666 133.299 3.9 134.433 3.9C135.566 3.9 136.499 4.26666 137.233 5C137.966 5.73333 138.333 6.66666 138.333 7.8V56.7C138.333 60.1 139.333 62.9 141.333 65.1C143.333 67.2333 145.899 68.3 149.033 68.3H151.733C152.799 68.3 153.666 68.6667 154.333 69.4C154.999 70.1333 155.333 71.0667 155.333 72.2C155.333 73.3333 154.933 74.2667 154.133 75C153.333 75.6667 152.333 76 151.133 76H149.033ZM124.133 30C123.133 30 122.299 29.7 121.633 29.1C120.966 28.4333 120.633 27.6333 120.633 26.7C120.633 25.7 120.966 24.9 121.633 24.3C122.299 23.6333 123.133 23.3 124.133 23.3H149.633C150.633 23.3 151.466 23.6333 152.133 24.3C152.799 24.9 153.133 25.7 153.133 26.7C153.133 27.6333 152.799 28.4333 152.133 29.1C151.466 29.7 150.633 30 149.633 30H124.133Z" fill="url(#paint0_radial_19_3)"/>
</g>
<defs>
<filter id="filter0_d_19_3" x="0" y="0" width="159.332" height="84" filterUnits="userSpaceOnUse" color-interpolation-filters="sRGB">
<feFlood flood-opacity="0" result="BackgroundImageFix"/>
<feColorMatrix in="SourceAlpha" type="matrix" values="0 0 0 0 0 0 0 0 0 0 0 0 0 0 0 0 0 0 127 0" result="hardAlpha"/>
<feOffset dy="4"/>
<feGaussianBlur stdDeviation="2"/>
<feComposite in2="hardAlpha" operator="out"/>
<feColorMatrix type="matrix" values="0 0 0 0 0.72549 0 0 0 0 0.768627 0 0 0 0 0.929412 0 0 0 1 0"/>
<feBlend mode="normal" in2="BackgroundImageFix" result="effect1_dropShadow_19_3"/>
<feBlend mode="normal" in="SourceGraphic" in2="effect1_dropShadow_19_3" result="shape"/>
</filter>
<radialGradient id="paint0_radial_19_3" cx="0" cy="0" r="1" gradientUnits="userSpaceOnUse" gradientTransform="translate(154.5 1.49999) rotate(153.94) scale(177.551 259.985)">
<stop stop-color="#0025E9"/>
<stop offset="0.0001" stop-color="#4200FF"/>
<stop offset="1" stop-color="#6100FF"/>
</radialGradient>
</defs>
</svg>
